# xmcd CD database file
#
# Track frame offsets:
#	150
#	13713
#	30012
#	40710
#	49891
#	60483
#	75821
#	92170
#	104822
#	124877
#	140599
#	150174
#
# Disc length: 2183 seconds
#
# Revision: 0
# Processed by: cddbd v1.4PL0 Copyright (c) Steve Scherf et al.
# Submitted via: CDex 1.40Beta9
#
DISCID=8808850c
DTITLE=Sverre Faaberg - CASH På Norsk
DYEAR=2001
DGENRE=Country
TTITLE0=Prøv Å Forstå Din Mann
TTITLE1=Frihetens Sang
TTITLE2=Eg Savner Deg Som Aldri Før
TTITLE3=Fem Fot Høyt Og Stiger
TTITLE4=Eg Har Satt
TTITLE5=Store Øyne Blå
TTITLE6=Gutten Gro
TTITLE7=Gunnar's Boogie
TTITLE8=Spill Ikkje Red River Valley
TTITLE9=Tilbake Igjen
TTITLE10=Pappa Spilte Dobro
TTITLE11=Fyllarrest
EXTD=YEAR: 2001 ID3G: 2
EXTT0=
EXTT1=
EXTT2=
EXTT3=
EXTT4=
EXTT5=
EXTT6=
EXTT7=
EXTT8=
EXTT9=
EXTT10=
EXTT11=
PLAYORDER=
